<mxfile host="app.diagrams.net" modified="2020-12-10T00:22:05.405Z" agent="5.0 (Windows NT 10.0; Win64; x64) AppleWebKit/537.36 (KHTML, like Gecko) Chrome/85.0.4183.121 Safari/537.36 OPR/71.0.3770.441" etag="U9dW-t7jNmC6WOfj_2pu" version="14.0.0" type="github">
  <diagram id="C5RBs43oDa-KdzZeNtuy" name="Page-1">
    <mxGraphModel dx="853" dy="513" grid="1" gridSize="10" guides="1" tooltips="1" connect="1" arrows="1" fold="1" page="1" pageScale="1" pageWidth="827" pageHeight="1169" math="0" shadow="0">
      <root>
        <mxCell id="WIyWlLk6GJQsqaUBKTNV-0" />
        <mxCell id="WIyWlLk6GJQsqaUBKTNV-1" parent="WIyWlLk6GJQsqaUBKTNV-0" />
        <mxCell id="pDuNY6hDj6TJJq3mTq0f-0" value="Начало алгоритма" style="rounded=1;whiteSpace=wrap;html=1;" vertex="1" parent="WIyWlLk6GJQsqaUBKTNV-1">
          <mxGeometry x="100" y="30" width="110" height="40" as="geometry" />
        </mxCell>
        <mxCell id="pDuNY6hDj6TJJq3mTq0f-1" value="" style="endArrow=classic;html=1;exitX=0.5;exitY=1;exitDx=0;exitDy=0;" edge="1" parent="WIyWlLk6GJQsqaUBKTNV-1" source="pDuNY6hDj6TJJq3mTq0f-0">
          <mxGeometry width="50" height="50" relative="1" as="geometry">
            <mxPoint x="380" y="340" as="sourcePoint" />
            <mxPoint x="155" y="100" as="targetPoint" />
          </mxGeometry>
        </mxCell>
        <mxCell id="pDuNY6hDj6TJJq3mTq0f-2" value="scanf(&quot;%d&quot;, &amp;amp;number_of_nodes);&lt;br&gt;scanf(&quot;%d&quot;, &amp;amp;number_of_ribs);" style="shape=parallelogram;perimeter=parallelogramPerimeter;whiteSpace=wrap;html=1;fixedSize=1;" vertex="1" parent="WIyWlLk6GJQsqaUBKTNV-1">
          <mxGeometry x="45" y="100" width="220" height="30" as="geometry" />
        </mxCell>
        <mxCell id="pDuNY6hDj6TJJq3mTq0f-3" value="int graph[number_of_nodes][number_of_ribs];" style="rounded=0;whiteSpace=wrap;html=1;" vertex="1" parent="WIyWlLk6GJQsqaUBKTNV-1">
          <mxGeometry x="27.5" y="160" width="255" height="30" as="geometry" />
        </mxCell>
        <mxCell id="pDuNY6hDj6TJJq3mTq0f-4" value="" style="endArrow=classic;html=1;exitX=0.5;exitY=1;exitDx=0;exitDy=0;entryX=0.5;entryY=0;entryDx=0;entryDy=0;" edge="1" parent="WIyWlLk6GJQsqaUBKTNV-1" source="pDuNY6hDj6TJJq3mTq0f-2" target="pDuNY6hDj6TJJq3mTq0f-3">
          <mxGeometry width="50" height="50" relative="1" as="geometry">
            <mxPoint x="380" y="330" as="sourcePoint" />
            <mxPoint x="430" y="280" as="targetPoint" />
          </mxGeometry>
        </mxCell>
        <mxCell id="pDuNY6hDj6TJJq3mTq0f-6" value="Начало цикла А&lt;br&gt;for (int i = 0; i &amp;lt; number_of_nodes; i++)" style="strokeWidth=2;html=1;shape=mxgraph.flowchart.loop_limit;whiteSpace=wrap;" vertex="1" parent="WIyWlLk6GJQsqaUBKTNV-1">
          <mxGeometry x="35" y="220" width="240" height="50" as="geometry" />
        </mxCell>
        <mxCell id="pDuNY6hDj6TJJq3mTq0f-7" value="" style="endArrow=classic;html=1;exitX=0.5;exitY=1;exitDx=0;exitDy=0;entryX=0.5;entryY=0;entryDx=0;entryDy=0;entryPerimeter=0;" edge="1" parent="WIyWlLk6GJQsqaUBKTNV-1" source="pDuNY6hDj6TJJq3mTq0f-3" target="pDuNY6hDj6TJJq3mTq0f-6">
          <mxGeometry width="50" height="50" relative="1" as="geometry">
            <mxPoint x="360" y="330" as="sourcePoint" />
            <mxPoint x="410" y="280" as="targetPoint" />
          </mxGeometry>
        </mxCell>
        <mxCell id="pDuNY6hDj6TJJq3mTq0f-8" value="Начало цикла Б&lt;br&gt;for (int j = 0; j &amp;lt; number_of_ribs; j++)" style="strokeWidth=2;html=1;shape=mxgraph.flowchart.loop_limit;whiteSpace=wrap;" vertex="1" parent="WIyWlLk6GJQsqaUBKTNV-1">
          <mxGeometry x="35" y="290" width="240" height="50" as="geometry" />
        </mxCell>
        <mxCell id="pDuNY6hDj6TJJq3mTq0f-9" value="" style="endArrow=classic;html=1;exitX=0.5;exitY=1;exitDx=0;exitDy=0;exitPerimeter=0;entryX=0.5;entryY=0;entryDx=0;entryDy=0;entryPerimeter=0;" edge="1" parent="WIyWlLk6GJQsqaUBKTNV-1" source="pDuNY6hDj6TJJq3mTq0f-6" target="pDuNY6hDj6TJJq3mTq0f-8">
          <mxGeometry width="50" height="50" relative="1" as="geometry">
            <mxPoint x="360" y="330" as="sourcePoint" />
            <mxPoint x="410" y="280" as="targetPoint" />
          </mxGeometry>
        </mxCell>
        <mxCell id="pDuNY6hDj6TJJq3mTq0f-10" value="scanf(&quot;%d&quot;, &amp;amp;graph[i][j]);" style="shape=parallelogram;perimeter=parallelogramPerimeter;whiteSpace=wrap;html=1;fixedSize=1;" vertex="1" parent="WIyWlLk6GJQsqaUBKTNV-1">
          <mxGeometry x="60" y="360" width="190" height="30" as="geometry" />
        </mxCell>
        <mxCell id="pDuNY6hDj6TJJq3mTq0f-11" value="" style="endArrow=classic;html=1;exitX=0.5;exitY=1;exitDx=0;exitDy=0;exitPerimeter=0;entryX=0.5;entryY=0;entryDx=0;entryDy=0;" edge="1" parent="WIyWlLk6GJQsqaUBKTNV-1" source="pDuNY6hDj6TJJq3mTq0f-8" target="pDuNY6hDj6TJJq3mTq0f-10">
          <mxGeometry width="50" height="50" relative="1" as="geometry">
            <mxPoint x="360" y="330" as="sourcePoint" />
            <mxPoint x="410" y="280" as="targetPoint" />
          </mxGeometry>
        </mxCell>
        <mxCell id="pDuNY6hDj6TJJq3mTq0f-12" value="Конец цикла Б" style="strokeWidth=2;html=1;shape=mxgraph.flowchart.loop_limit;whiteSpace=wrap;direction=west;" vertex="1" parent="WIyWlLk6GJQsqaUBKTNV-1">
          <mxGeometry x="37.5" y="410" width="235" height="40" as="geometry" />
        </mxCell>
        <mxCell id="pDuNY6hDj6TJJq3mTq0f-14" value="Конец цикла А" style="strokeWidth=2;html=1;shape=mxgraph.flowchart.loop_limit;whiteSpace=wrap;direction=west;" vertex="1" parent="WIyWlLk6GJQsqaUBKTNV-1">
          <mxGeometry x="40" y="470" width="235" height="40" as="geometry" />
        </mxCell>
        <mxCell id="pDuNY6hDj6TJJq3mTq0f-15" value="" style="endArrow=classic;html=1;exitX=0.5;exitY=1;exitDx=0;exitDy=0;entryX=0.5;entryY=1;entryDx=0;entryDy=0;entryPerimeter=0;" edge="1" parent="WIyWlLk6GJQsqaUBKTNV-1" source="pDuNY6hDj6TJJq3mTq0f-10" target="pDuNY6hDj6TJJq3mTq0f-12">
          <mxGeometry width="50" height="50" relative="1" as="geometry">
            <mxPoint x="360" y="330" as="sourcePoint" />
            <mxPoint x="410" y="280" as="targetPoint" />
          </mxGeometry>
        </mxCell>
        <mxCell id="pDuNY6hDj6TJJq3mTq0f-16" value="" style="endArrow=classic;html=1;exitX=0.5;exitY=0;exitDx=0;exitDy=0;exitPerimeter=0;" edge="1" parent="WIyWlLk6GJQsqaUBKTNV-1" source="pDuNY6hDj6TJJq3mTq0f-12">
          <mxGeometry width="50" height="50" relative="1" as="geometry">
            <mxPoint x="340" y="510" as="sourcePoint" />
            <mxPoint x="155" y="470" as="targetPoint" />
          </mxGeometry>
        </mxCell>
        <mxCell id="pDuNY6hDj6TJJq3mTq0f-22" value="" style="edgeStyle=orthogonalEdgeStyle;rounded=0;orthogonalLoop=1;jettySize=auto;html=1;" edge="1" parent="WIyWlLk6GJQsqaUBKTNV-1" source="pDuNY6hDj6TJJq3mTq0f-17" target="pDuNY6hDj6TJJq3mTq0f-21">
          <mxGeometry relative="1" as="geometry" />
        </mxCell>
        <mxCell id="pDuNY6hDj6TJJq3mTq0f-17" value="check input" style="rhombus;whiteSpace=wrap;html=1;" vertex="1" parent="WIyWlLk6GJQsqaUBKTNV-1">
          <mxGeometry x="81.25" y="540" width="152.5" height="60" as="geometry" />
        </mxCell>
        <mxCell id="pDuNY6hDj6TJJq3mTq0f-18" value="" style="endArrow=classic;html=1;exitX=0.5;exitY=0;exitDx=0;exitDy=0;exitPerimeter=0;entryX=0.5;entryY=0;entryDx=0;entryDy=0;" edge="1" parent="WIyWlLk6GJQsqaUBKTNV-1" source="pDuNY6hDj6TJJq3mTq0f-14" target="pDuNY6hDj6TJJq3mTq0f-17">
          <mxGeometry width="50" height="50" relative="1" as="geometry">
            <mxPoint x="340" y="630" as="sourcePoint" />
            <mxPoint x="390" y="580" as="targetPoint" />
          </mxGeometry>
        </mxCell>
        <mxCell id="pDuNY6hDj6TJJq3mTq0f-19" value="" style="endArrow=classic;html=1;exitX=1;exitY=0.5;exitDx=0;exitDy=0;" edge="1" parent="WIyWlLk6GJQsqaUBKTNV-1" source="pDuNY6hDj6TJJq3mTq0f-17">
          <mxGeometry width="50" height="50" relative="1" as="geometry">
            <mxPoint x="340" y="750" as="sourcePoint" />
            <mxPoint x="260" y="570" as="targetPoint" />
          </mxGeometry>
        </mxCell>
        <mxCell id="pDuNY6hDj6TJJq3mTq0f-20" value="exit(000);" style="rounded=0;whiteSpace=wrap;html=1;" vertex="1" parent="WIyWlLk6GJQsqaUBKTNV-1">
          <mxGeometry x="260" y="555" width="80" height="25" as="geometry" />
        </mxCell>
        <mxCell id="pDuNY6hDj6TJJq3mTq0f-24" value="да" style="edgeStyle=orthogonalEdgeStyle;rounded=0;orthogonalLoop=1;jettySize=auto;html=1;" edge="1" parent="WIyWlLk6GJQsqaUBKTNV-1" source="pDuNY6hDj6TJJq3mTq0f-21" target="pDuNY6hDj6TJJq3mTq0f-23">
          <mxGeometry relative="1" as="geometry">
            <Array as="points">
              <mxPoint x="240" y="670" />
              <mxPoint x="240" y="670" />
            </Array>
          </mxGeometry>
        </mxCell>
        <mxCell id="pDuNY6hDj6TJJq3mTq0f-26" value="нет" style="edgeStyle=orthogonalEdgeStyle;rounded=0;orthogonalLoop=1;jettySize=auto;html=1;" edge="1" parent="WIyWlLk6GJQsqaUBKTNV-1" source="pDuNY6hDj6TJJq3mTq0f-21" target="pDuNY6hDj6TJJq3mTq0f-25">
          <mxGeometry relative="1" as="geometry" />
        </mxCell>
        <mxCell id="pDuNY6hDj6TJJq3mTq0f-21" value="check connectivity" style="rhombus;whiteSpace=wrap;html=1;" vertex="1" parent="WIyWlLk6GJQsqaUBKTNV-1">
          <mxGeometry x="81.25" y="640" width="152.5" height="60" as="geometry" />
        </mxCell>
        <mxCell id="pDuNY6hDj6TJJq3mTq0f-23" value="printf(&quot;graph is connected\n&quot;);" style="whiteSpace=wrap;html=1;" vertex="1" parent="WIyWlLk6GJQsqaUBKTNV-1">
          <mxGeometry x="300" y="650" width="166" height="40" as="geometry" />
        </mxCell>
        <mxCell id="pDuNY6hDj6TJJq3mTq0f-28" value="" style="edgeStyle=orthogonalEdgeStyle;rounded=0;orthogonalLoop=1;jettySize=auto;html=1;" edge="1" parent="WIyWlLk6GJQsqaUBKTNV-1" source="pDuNY6hDj6TJJq3mTq0f-25" target="pDuNY6hDj6TJJq3mTq0f-27">
          <mxGeometry relative="1" as="geometry" />
        </mxCell>
        <mxCell id="pDuNY6hDj6TJJq3mTq0f-25" value="printf(&quot;graph is not connected\n&quot;);" style="whiteSpace=wrap;html=1;" vertex="1" parent="WIyWlLk6GJQsqaUBKTNV-1">
          <mxGeometry x="66.25" y="790" width="182.5" height="30" as="geometry" />
        </mxCell>
        <mxCell id="pDuNY6hDj6TJJq3mTq0f-27" value="" style="whiteSpace=wrap;html=1;" vertex="1" parent="WIyWlLk6GJQsqaUBKTNV-1">
          <mxGeometry x="97.5" y="885" width="120" height="60" as="geometry" />
        </mxCell>
      </root>
    </mxGraphModel>
  </diagram>
</mxfile>
